<?xml version="1.0" standalone="no"?>
<!DOCTYPE svg PUBLIC "-//W3C//DTD SVG 20010904//EN"
 "http://www.w3.org/TR/2001/REC-SVG-20010904/DTD/svg10.dtd">
<svg version="1.0" xmlns="http://www.w3.org/2000/svg"
 width="420.000000pt" height="420.000000pt" viewBox="0 0 420.000000 420.000000"
 preserveAspectRatio="xMidYMid meet">
<metadata>
Created by potrace 1.11, written by Peter Selinger 2001-2013
</metadata>
<g transform="translate(0.000000,420.000000) scale(0.100000,-0.100000)"
fill="#000000" stroke="none">
<path d="M1095 4179 c4 -11 37 -101 75 -200 l68 -179 -269 0 -269 0 0 -400 0
-400 200 0 200 0 0 200 0 201 146 -3 147 -3 29 -75 c15 -41 35 -93 43 -115 8
-22 32 -87 55 -145 22 -58 74 -195 116 -305 41 -110 79 -209 84 -220 5 -11 20
-49 33 -85 14 -36 46 -120 71 -188 26 -68 43 -128 39 -135 -6 -11 -989 -1242
-1031 -1292 -48 -57 -82 -104 -82 -113 0 -5 34 -80 75 -166 l74 -156 818 0
818 0 75 -200 75 -200 212 0 c117 0 213 3 213 6 0 3 -11 33 -24 67 -13 34 -47
122 -74 194 l-50 133 269 0 269 0 0 400 0 400 -200 0 -200 0 0 -200 0 -200
-891 0 c-712 0 -889 3 -882 13 45 57 1748 2187 1761 2202 62 71 362 454 362
463 0 5 -34 80 -75 166 l-74 156 -818 0 -818 0 -75 200 -75 200 -213 0 c-211
0 -213 0 -207 -21z m1773 -797 c-7 -10 -168 -213 -358 -450 -202 -252 -348
-426 -352 -419 -3 7 -74 192 -157 412 -83 220 -158 415 -166 433 -8 18 -15 35
-15 37 0 3 239 5 531 5 512 0 530 -1 517 -18z"/>
</g>
</svg>
